<svg width="16" height="20" viewBox="0 0 16 20" fill="none" xmlns="http://www.w3.org/2000/svg">
<path d="M10.4978 8C10.4978 9.38071 9.37851 10.5 7.9978 10.5C6.61709 10.5 5.4978 9.38071 5.4978 8C5.4978 6.61929 6.61709 5.5 7.9978 5.5C9.37851 5.5 10.4978 6.61929 10.4978 8Z" stroke="#1BDA58" stroke-width="2" stroke-linejoin="round"/>
<path d="M15 8C15 12.8354 10.2437 17.1734 8.57232 18.5484C8.23521 18.8258 7.76479 18.8258 7.42768 18.5484C5.75634 17.1734 1 12.8354 1 8C1 4.13401 4.13401 1 8 1C11.866 1 15 4.13401 15 8Z" stroke="#1BDA58" stroke-width="2" stroke-linejoin="round"/>
</svg>
